<svg xmlns="http://www.w3.org/2000/svg" xmlns:xlink="http://www.w3.org/1999/xlink" width="286" height="286" viewBox="0 0 286 286">
  <style>
    #tcon_favicon, #crown, #Exclusion_1 {
      fill: black;
    }
    @media (prefers-color-scheme: dark) {
      #tcon_favicon, #crown, #Exclusion_1 {
        fill: white;
      }
    }
  </style>
  <defs>
    <clipPath id="clip-tcon_favicon">
      <rect width="286" height="286"/>
    </clipPath>
  </defs>
  <g id="tcon_favicon" clip-path="url(#clip-tcon_favicon)">
    <g id="crown" transform="translate(0.001 29.978)">
      <path id="Exclusion_1" data-name="Exclusion 1" d="M153.227,54.193h0c-3.858-3.183-9.9-6.021-17.96-8.436a181.419,181.419,0,0,0-25.732-5.366A399.17,399.17,0,0,0,56,36.737,399.282,399.282,0,0,0,2.457,40.391a181.4,181.4,0,0,0-25.733,5.366c-8.059,2.415-14.1,5.253-17.956,8.435L-86.748-76.837a4.622,4.622,0,0,1,1.62-5.222,4.515,4.515,0,0,1,2.726-.9,4.619,4.619,0,0,1,2.738.893L-6.473-28.337a4.569,4.569,0,0,1,1.638,5.18,15.037,15.037,0,0,0-.872,4.8A15,15,0,0,0,9.271-3.381a15,15,0,0,0,14.978-14.98,14.806,14.806,0,0,0-13.632-14.8,4.643,4.643,0,0,1-3.6-2.3,4.653,4.653,0,0,1-.176-4.266l44.97-94.822a4.482,4.482,0,0,1,4.168-2.427,4.482,4.482,0,0,1,4.168,2.427l44.94,94.745a4.634,4.634,0,0,1-.209,4.343,4.6,4.6,0,0,1-3.7,2.232,14.938,14.938,0,0,0-14.17,14.87,15,15,0,0,0,14.98,14.98,15,15,0,0,0,14.978-14.98,15.06,15.06,0,0,0-1.063-5.472,4.6,4.6,0,0,1,1.622-5.42L191.71-82.1a4.616,4.616,0,0,1,2.68-.856,4.565,4.565,0,0,1,2.757.92,4.583,4.583,0,0,1,1.592,5.2L153.228,54.192ZM56.5,15.245A36.457,36.457,0,0,1,85.8,30.128l16.72-12.249a57.011,57.011,0,0,0-92.041,0L27.2,30.128A36.458,36.458,0,0,1,56.5,15.245Z" transform="translate(87 154)"/>
    </g>
  </g>
</svg>
