<svg width="612" height="24" viewBox="0 0 612 24" fill="none" xmlns="http://www.w3.org/2000/svg">
<path d="M8.43741 23.5093V1.82983H0V0.4911H18.2171V1.82983H9.77973V23.5093H8.43741ZM30.7614 23.5093V0.4911H32.1037V11.3288H46.0382V0.4911H47.3805V23.5093H46.0382V12.6716H32.1037V23.5093H30.7614ZM61.8424 23.5093V0.4911H75.9047V1.82983H63.1847V11.3208H73.9872V12.6636H63.1847V22.1546H75.9047V23.5093H61.8424ZM115.151 23.9889C113.131 24.0631 111.135 23.5285 109.423 22.4543C107.88 21.4149 106.682 19.9405 105.979 18.2183C105.179 16.2448 104.788 14.1294 104.828 12.0002C104.788 9.871 105.179 7.75565 105.979 5.78209C106.682 4.05989 107.88 2.58547 109.423 1.5461C111.135 0.471927 113.131 -0.0627011 115.151 0.0115542C117.499 -0.103405 119.807 0.64262 121.643 2.10957C123.322 3.57349 124.487 5.53718 124.967 7.71227L123.561 8.03196C123.14 6.14833 122.136 4.44526 120.693 3.16457C119.132 1.90013 117.161 1.25433 115.155 1.35029C113.417 1.28433 111.7 1.75901 110.242 2.709C108.911 3.64722 107.886 4.95641 107.293 6.47344C106.603 8.23224 106.256 10.1069 106.271 11.9962C106.213 13.8814 106.538 15.7588 107.225 17.515C107.825 19.0369 108.862 20.3469 110.206 21.2794C111.675 22.2317 113.402 22.7089 115.151 22.6461C117.159 22.742 119.13 22.0931 120.689 20.8239C122.129 19.5436 123.132 17.8443 123.557 15.9645L124.963 16.2842C124.483 18.4592 123.318 20.4229 121.639 21.8868C119.805 23.3543 117.498 24.1017 115.151 23.9889ZM138.466 23.5093V0.4911H146.936C147.159 0.4911 147.388 0.499092 147.623 0.515077C147.885 0.533465 148.147 0.566821 148.406 0.614983C149.456 0.763303 150.45 1.18191 151.29 1.82983C152.105 2.46335 152.752 3.2865 153.176 4.22756C153.625 5.22444 153.851 6.30725 153.839 7.40056C153.869 8.9464 153.398 10.4604 152.497 11.7165C151.624 12.9361 150.322 13.7799 148.853 14.0782L148.598 14.302H139.809V23.5093H138.466ZM152.88 23.5093L148.342 14.1422L149.492 13.279L154.478 23.5093H152.88ZM139.805 12.9593H146.932C147.113 12.9593 147.328 12.9486 147.579 12.9273C147.829 12.906 148.082 12.8727 148.338 12.8274C149.163 12.6851 149.934 12.3204 150.567 11.7724C151.168 11.2409 151.636 10.5757 151.933 9.83026C152.245 9.05555 152.402 8.22754 152.397 7.39257C152.402 6.5576 152.245 5.72958 151.933 4.95487C151.636 4.20948 151.168 3.54427 150.567 3.01271C149.934 2.46478 149.163 2.10002 148.338 1.95771C148.087 1.90652 147.834 1.87313 147.579 1.85781C147.328 1.84182 147.113 1.83383 146.932 1.83383H139.805V12.9593ZM177.026 23.9889C175.006 24.0631 173.01 23.5285 171.297 22.4543C169.755 21.4149 168.556 19.9405 167.853 18.2183C167.053 16.2448 166.662 14.1294 166.703 12.0002C166.662 9.871 167.053 7.75565 167.853 5.78209C168.556 4.05989 169.755 2.58547 171.297 1.5461C173.01 0.471927 175.006 -0.0627011 177.026 0.0115542C179.046 -0.0627011 181.042 0.471927 182.755 1.5461C184.297 2.58547 185.496 4.05989 186.198 5.78209C186.997 7.75593 187.387 9.87127 187.345 12.0002C187.386 14.1278 186.996 16.2417 186.198 18.2143C185.496 19.9365 184.297 21.4109 182.755 22.4503C181.042 23.5259 179.046 24.0619 177.026 23.9889ZM177.026 22.6461C178.769 22.7096 180.49 22.2323 181.952 21.2794C183.289 20.3434 184.322 19.0341 184.92 17.515C185.609 15.7598 185.946 13.8857 185.911 12.0002C185.946 10.1121 185.609 8.23559 184.92 6.47743C184.326 4.95713 183.294 3.64715 181.956 2.713C180.491 1.76433 178.77 1.28992 177.026 1.35428C175.287 1.28833 173.57 1.763 172.112 2.713C170.781 3.65122 169.756 4.9604 169.164 6.47743C168.474 8.23624 168.127 10.1109 168.141 12.0002C168.085 13.8844 168.411 15.7603 169.1 17.515C169.699 19.0369 170.736 20.3469 172.08 21.2794C173.549 22.2317 175.276 22.7089 177.026 22.6461ZM238.613 23.5093V0.4911H239.955L253.953 21.1116V0.4911H255.296V23.5093H253.953L239.955 2.85686V23.5093H238.613ZM295.182 23.9889C293.161 24.0631 291.165 23.5285 289.453 22.4543C287.911 21.4149 286.712 19.9405 286.009 18.2183C285.209 16.2448 284.818 14.1294 284.859 12.0002C284.818 9.871 285.209 7.75564 286.009 5.78209C286.712 4.05989 287.911 2.58547 289.453 1.5461C291.165 0.471927 293.161 -0.0627011 295.182 0.0115542C297.202 -0.0627011 299.198 0.471927 300.91 1.5461C302.453 2.58547 303.651 4.05989 304.354 5.78209C305.154 7.75565 305.545 9.871 305.505 12.0002C305.545 14.1281 305.153 16.242 304.354 18.2143C303.651 19.9365 302.453 21.4109 300.91 22.4503C299.198 23.5259 297.202 24.0619 295.182 23.9889ZM295.182 22.6461C296.926 22.7105 298.649 22.2331 300.111 21.2794C301.447 20.3428 302.478 19.0336 303.076 17.515C303.765 15.7598 304.102 13.8857 304.066 12.0002C304.101 10.1121 303.765 8.23558 303.076 6.47743C302.481 4.95713 301.45 3.64715 300.111 2.713C298.647 1.76433 296.925 1.28992 295.182 1.35428C293.443 1.28833 291.726 1.763 290.268 2.713C288.937 3.65122 287.912 4.9604 287.319 6.47743C286.629 8.23623 286.282 10.1109 286.297 12.0002C286.241 13.8844 286.567 15.7603 287.256 17.515C287.855 19.0369 288.892 20.3469 290.236 21.2794C291.705 22.2317 293.432 22.7089 295.182 22.6461ZM318.688 23.5093V0.4911H331.472V1.82983H320.03V11.3208H329.554V12.6636H320.03V23.5093H318.688ZM360.715 23.5093V0.4911H362.058L376.056 21.1116V0.4911H377.398V23.5093H376.056L362.058 2.85686V23.5093H360.715ZM391.86 23.5093V0.4911H405.923V1.82983H393.203V11.3208H404.005V12.6636H393.203V22.1546H405.923V23.5093H391.86ZM427.831 23.9889C426.283 24.0223 424.746 23.7225 423.325 23.1097C422.069 22.5492 420.963 21.7003 420.097 20.632C419.204 19.5082 418.544 18.2176 418.155 16.8356C417.709 15.2631 417.491 13.6347 417.508 12.0002C417.467 9.87354 417.858 7.76067 418.659 5.79008C419.362 4.07241 420.561 2.60326 422.102 1.57008C423.817 0.5007 425.812 -0.0309624 427.831 0.0435235C429.775 -0.0289658 431.692 0.510574 433.312 1.58606C434.734 2.56587 435.821 3.9577 436.428 5.57429L435.118 6.11777C434.596 4.71883 433.654 3.51563 432.421 2.67303C431.061 1.78215 429.46 1.33278 427.835 1.38625C426.097 1.32029 424.381 1.79196 422.921 2.73698C421.591 3.66898 420.566 4.97292 419.973 6.48543C419.282 8.2413 418.935 10.1134 418.95 12.0002C418.894 13.8844 419.221 15.7603 419.909 17.515C420.509 19.0369 421.546 20.3469 422.889 21.2794C424.359 22.2317 426.085 22.7089 427.835 22.6461C429.508 22.7228 431.167 22.3149 432.613 21.4712C433.824 20.6918 434.756 19.5469 435.274 18.2023C435.861 16.6509 436.146 15.0014 436.113 13.3429H429.976V12.0002H437.487C437.519 12.2986 437.538 12.565 437.543 12.7994C437.548 13.0339 437.551 13.2257 437.551 13.3749C437.58 15.2277 437.237 17.0674 436.544 18.7858C435.908 20.3479 434.806 21.6762 433.388 22.5902C431.711 23.5878 429.78 24.0739 427.831 23.9889ZM448.493 23.5093L456.867 0.4911H458.305L466.678 23.5093H465.24L457.09 1.09853H458.049L449.931 23.5093H448.493ZM451.689 17.531V16.2522H463.45V17.531H451.689ZM484.144 23.5093V1.82983H475.707V0.4911H493.924V1.82983H485.487V23.5093H484.144ZM506.788 23.5093V0.4911H508.13V23.5093H506.788ZM529.208 23.5093L520.834 0.4911H522.273L529.915 21.5592L537.585 0.4911H539.024L530.646 23.5093H529.208ZM551.724 23.5093V0.4911H553.066V23.5093H551.724ZM574.367 23.5093V1.82983H565.93V0.4911H584.147V1.82983H575.71V23.5093H574.367ZM603.051 23.5093V13.7266L595.413 0.4911H596.947L603.722 12.192L610.466 0.4911H612L604.394 13.7266V23.5093H603.051Z" fill="black"/>
<path d="M224.877 23.9889C224.199 23.4956 223.433 23.1365 222.621 22.9309C221.563 22.6287 220.485 22.4036 219.395 22.2575C214.94 21.6465 210.423 21.6465 205.969 22.2575C204.879 22.4038 203.802 22.6288 202.746 22.9309C201.935 23.1371 201.171 23.4961 200.494 23.9889L194.788 7.55441C194.747 7.43812 194.744 7.31188 194.78 7.19403C194.816 7.07617 194.889 6.97284 194.987 6.89903C195.086 6.82527 195.206 6.78563 195.329 6.78614C195.452 6.78584 195.573 6.82505 195.672 6.89803L204.85 13.6377C204.949 13.7097 205.023 13.8116 205.06 13.9285C205.097 14.0453 205.095 14.171 205.056 14.287C204.968 14.5448 204.937 14.8187 204.965 15.0897C204.994 15.3606 205.081 15.6221 205.221 15.8559C205.36 16.0897 205.55 16.2902 205.775 16.4434C206 16.5967 206.256 16.6989 206.525 16.7431C206.793 16.7873 207.069 16.7723 207.331 16.6992C207.593 16.6262 207.837 16.4968 208.044 16.32C208.251 16.1433 208.417 15.9235 208.531 15.6759C208.645 15.4283 208.703 15.1589 208.702 14.8865C208.703 14.4187 208.528 13.9676 208.211 13.6235C207.894 13.2793 207.459 13.0675 206.993 13.0302C206.9 13.0219 206.811 12.9912 206.732 12.9409C206.654 12.8906 206.589 12.8222 206.542 12.7413C206.496 12.6604 206.469 12.5696 206.466 12.4764C206.462 12.3832 206.48 12.2905 206.52 12.206L212.161 0.311269C212.213 0.21854 212.289 0.141357 212.381 0.0876424C212.472 0.0339279 212.577 0.00561754 212.683 0.00561754C212.789 0.00561754 212.894 0.0339279 212.986 0.0876424C213.077 0.141357 213.153 0.21854 213.205 0.311269L218.841 12.2C218.882 12.2856 218.901 12.3798 218.897 12.4744C218.892 12.569 218.865 12.6611 218.816 12.7426C218.768 12.824 218.7 12.8923 218.619 12.9414C218.538 12.9905 218.447 13.019 218.352 13.0242C217.956 13.0463 217.577 13.1935 217.269 13.4447C216.962 13.6959 216.742 14.0381 216.642 14.4221C216.541 14.8061 216.565 15.2121 216.71 15.5818C216.854 15.9514 217.113 16.2656 217.447 16.4792C217.782 16.6927 218.175 16.7946 218.571 16.7702C218.968 16.7459 219.346 16.5964 219.652 16.3434C219.957 16.0905 220.175 15.747 220.273 15.3624C220.372 14.9778 220.346 14.5719 220.199 14.2031C220.152 14.0838 220.146 13.9522 220.182 13.8291C220.218 13.7061 220.294 13.5986 220.398 13.5238L229.702 6.89404C229.8 6.82437 229.917 6.787 230.037 6.78714C230.129 6.78729 230.22 6.80947 230.302 6.85184C230.384 6.89421 230.455 6.95553 230.508 7.03071C230.561 7.10588 230.596 7.19272 230.609 7.28399C230.622 7.37527 230.613 7.46832 230.583 7.55541L224.877 23.9889ZM212.749 19.1035C213.465 19.1052 214.17 19.275 214.808 19.5992C215.446 19.9233 215.999 20.3927 216.422 20.9697L218.52 19.4332C217.856 18.5252 216.988 17.7867 215.985 17.2775C214.982 16.7684 213.874 16.5031 212.75 16.5031C211.625 16.5031 210.517 16.7684 209.514 17.2775C208.511 17.7867 207.643 18.5252 206.979 19.4332L209.077 20.9697C209.5 20.3929 210.053 19.9235 210.691 19.5994C211.329 19.2752 212.034 19.1054 212.749 19.1035Z" fill="black"/>
</svg>
