<svg xmlns="http://www.w3.org/2000/svg" xmlns:xlink="http://www.w3.org/1999/xlink" width="612.8" height="24" viewBox="0 0 612.8 24">
  <defs>
    <clipPath id="clip-tcon_logo">
      <rect width="612.8" height="24"/>
    </clipPath>
  </defs>
  <g id="tcon_logo" clip-path="url(#clip-tcon_logo)">
    <path id="Path_1" data-name="Path 1" d="M8.768,0V-21.7H.32V-23.04H18.56V-21.7H10.112V0ZM31.12,0V-23.04h1.344v10.848H46.416V-23.04H47.76V0H46.416V-10.848H32.464V0ZM62.24,0V-23.04H76.32V-21.7H63.584v9.5H74.4v1.344H63.584v9.5H76.32V0Zm53.376.48a10.1,10.1,0,0,1-5.736-1.536,9.393,9.393,0,0,1-3.448-4.24,15.762,15.762,0,0,1-1.152-6.224,15.762,15.762,0,0,1,1.152-6.224,9.393,9.393,0,0,1,3.448-4.24,10.1,10.1,0,0,1,5.736-1.536,9.659,9.659,0,0,1,6.5,2.1,10.424,10.424,0,0,1,3.328,5.608l-1.408.32a9.194,9.194,0,0,0-2.872-4.872,8.186,8.186,0,0,0-5.544-1.816,8.43,8.43,0,0,0-4.92,1.36,8.306,8.306,0,0,0-2.952,3.768,14.822,14.822,0,0,0-1.024,5.528A13.974,13.974,0,0,0,107.68-6a8.283,8.283,0,0,0,2.984,3.768,8.544,8.544,0,0,0,4.952,1.368,8.163,8.163,0,0,0,5.544-1.824,9.232,9.232,0,0,0,2.872-4.864l1.408.32a10.424,10.424,0,0,1-3.328,5.608A9.659,9.659,0,0,1,115.616.48ZM138.96,0V-23.04h8.48q.336,0,.688.024a6.936,6.936,0,0,1,.784.1A6.134,6.134,0,0,1,151.8-21.7a6.336,6.336,0,0,1,1.888,2.4,7.528,7.528,0,0,1,.664,3.176,7.171,7.171,0,0,1-1.344,4.32A5.938,5.938,0,0,1,149.36-9.44l-.256.224h-8.8V0Zm14.432,0-4.544-9.376L150-10.24,154.992,0ZM140.3-10.56h7.136q.272,0,.648-.032t.76-.1a4.609,4.609,0,0,0,2.232-1.056,5.134,5.134,0,0,0,1.368-1.944,6.429,6.429,0,0,0,.464-2.44,6.429,6.429,0,0,0-.464-2.44,5.134,5.134,0,0,0-1.368-1.944,4.609,4.609,0,0,0-2.232-1.056,5.415,5.415,0,0,0-.76-.1q-.376-.024-.648-.024H140.3ZM177.568.48a10.1,10.1,0,0,1-5.736-1.536,9.393,9.393,0,0,1-3.448-4.24,15.762,15.762,0,0,1-1.152-6.224,15.762,15.762,0,0,1,1.152-6.224,9.393,9.393,0,0,1,3.448-4.24,10.1,10.1,0,0,1,5.736-1.536,10.1,10.1,0,0,1,5.736,1.536,9.393,9.393,0,0,1,3.448,4.24A15.761,15.761,0,0,1,187.9-11.52,15.761,15.761,0,0,1,186.752-5.3a9.393,9.393,0,0,1-3.448,4.24A10.1,10.1,0,0,1,177.568.48Zm0-1.344A8.469,8.469,0,0,0,182.5-2.232,8.322,8.322,0,0,0,185.472-6a14.356,14.356,0,0,0,.992-5.52,14.417,14.417,0,0,0-.992-5.528,8.266,8.266,0,0,0-2.968-3.768,8.505,8.505,0,0,0-4.936-1.36,8.43,8.43,0,0,0-4.92,1.36,8.306,8.306,0,0,0-2.952,3.768,14.823,14.823,0,0,0-1.024,5.528,13.974,13.974,0,0,0,.96,5.52,8.283,8.283,0,0,0,2.984,3.768A8.544,8.544,0,0,0,177.568-.864ZM205.136,0l-6.592-23.04h1.376l5.92,20.608,5.888-20.608h1.408l5.92,20.608,5.888-20.608h1.408L219.76,0h-1.408l-5.92-20.576L206.544,0Zm34.1,0V-23.04h1.344L254.592-2.4V-23.04h1.344V0h-1.344L240.576-20.672V0Zm56.64.48a10.1,10.1,0,0,1-5.736-1.536,9.393,9.393,0,0,1-3.448-4.24,15.761,15.761,0,0,1-1.152-6.224,15.761,15.761,0,0,1,1.152-6.224,9.393,9.393,0,0,1,3.448-4.24,10.1,10.1,0,0,1,5.736-1.536,10.1,10.1,0,0,1,5.736,1.536,9.393,9.393,0,0,1,3.448,4.24,15.762,15.762,0,0,1,1.152,6.224A15.762,15.762,0,0,1,305.056-5.3a9.393,9.393,0,0,1-3.448,4.24A10.1,10.1,0,0,1,295.872.48Zm0-1.344a8.469,8.469,0,0,0,4.936-1.368A8.322,8.322,0,0,0,303.776-6a14.356,14.356,0,0,0,.992-5.52,14.416,14.416,0,0,0-.992-5.528,8.266,8.266,0,0,0-2.968-3.768,8.505,8.505,0,0,0-4.936-1.36,8.43,8.43,0,0,0-4.92,1.36A8.306,8.306,0,0,0,288-17.048a14.822,14.822,0,0,0-1.024,5.528,13.974,13.974,0,0,0,.96,5.52,8.283,8.283,0,0,0,2.984,3.768A8.544,8.544,0,0,0,295.872-.864ZM319.408,0V-23.04h12.8V-21.7H320.752v9.5h9.536v1.344h-9.536V0Zm42.08,0V-23.04h1.344L376.848-2.4V-23.04h1.344V0h-1.344L362.832-20.672V0Zm31.184,0V-23.04h14.08V-21.7H394.016v9.5h10.816v1.344H394.016v9.5h12.736V0Zm36.016.48a10.811,10.811,0,0,1-4.512-.88,8.756,8.756,0,0,1-3.232-2.48A10.814,10.814,0,0,1,419-6.68a17.082,17.082,0,0,1-.648-4.84,15.7,15.7,0,0,1,1.152-6.216,9.35,9.35,0,0,1,3.448-4.224,10.135,10.135,0,0,1,5.736-1.528,9.3,9.3,0,0,1,5.488,1.544,8.461,8.461,0,0,1,3.12,3.992l-1.312.544a7.247,7.247,0,0,0-2.7-3.448,7.907,7.907,0,0,0-4.592-1.288,8.466,8.466,0,0,0-4.92,1.352,8.261,8.261,0,0,0-2.952,3.752,14.759,14.759,0,0,0-1.024,5.52,13.974,13.974,0,0,0,.96,5.52,8.283,8.283,0,0,0,2.984,3.768,8.544,8.544,0,0,0,4.952,1.368,8.706,8.706,0,0,0,4.784-1.176,6.791,6.791,0,0,0,2.664-3.272,13.014,13.014,0,0,0,.84-4.864h-6.144V-11.52h7.52q.048.448.056.8t.008.576a13.9,13.9,0,0,1-1.008,5.416,8.224,8.224,0,0,1-3.16,3.808A10.029,10.029,0,0,1,428.688.48ZM449.376,0l8.384-23.04h1.44L467.584,0h-1.44l-8.16-22.432h.96L450.816,0Zm3.2-5.984v-1.28h11.776v1.28ZM485.072,0V-21.7h-8.448V-23.04h18.24V-21.7h-8.448V0Zm22.672,0V-23.04h1.344V0Zm22.448,0-8.384-23.04h1.44L530.9-1.952l7.68-21.088h1.44L531.632,0Zm22.544,0V-23.04h1.344V0Zm22.672,0V-21.7H566.96V-23.04H585.2V-21.7h-8.448V0Zm28.72,0V-9.792L596.48-23.04h1.536L604.8-11.328l6.752-11.712h1.536L605.472-9.792V0Z" transform="translate(-0.32 23.52)"/>
  </g>
</svg>
