<svg width="20" height="20" viewBox="0 0 20 20" fill="white" xmlns="http://www.w3.org/2000/svg">
    <path
        d="M13.46 12.04C14.42 10.78 15 9.20002 15 7.50001C15 3.36001 11.6401 0 7.50001 0C3.35993 0 0 3.35993 0 7.50001C0 11.6401 3.35993 15 7.50001 15C9.22002 15 10.78 14.4201 12.04 13.46L18.58 20L20.0001 18.5799L13.46 12.04ZM7.49998 13C4.45994 13 1.99997 10.54 1.99997 7.49998C1.99997 4.45994 4.45994 1.99997 7.49998 1.99997C10.54 1.99997 13 4.45994 13 7.49998C13 10.54 10.54 13 7.49998 13Z"
        fill="white" />
</svg>
