<svg xmlns="http://www.w3.org/2000/svg" xmlns:xlink="http://www.w3.org/1999/xlink" width="25" height="16.7" viewBox="0 0 25 16.7">
  <defs>
    <style>
      .cls-1 {
        clip-path: url(#clip-tcon_menu);
      }
    </style>
    <clipPath id="clip-tcon_menu">
      <rect width="25" height="16.7"/>
    </clipPath>
  </defs>
  <g id="tcon_menu" class="cls-1">
    <g id="crown" transform="translate(0.002 -17.023)">
      <path id="Exclusion_1" data-name="Exclusion 1" d="M21,16.711h0a4.587,4.587,0,0,0-1.57-.737A15.858,15.858,0,0,0,17.18,15.5a34.449,34.449,0,0,0-9.36,0,15.857,15.857,0,0,0-2.249.469A4.584,4.584,0,0,0,4,16.711L.022,5.257A.4.4,0,0,1,.164,4.8.4.4,0,0,1,.4,4.722.4.4,0,0,1,.641,4.8l6.4,4.7a.4.4,0,0,1,.143.453,1.306,1.306,0,1,0,2.542.419A1.294,1.294,0,0,0,8.533,9.075.4.4,0,0,1,8.2,8.5L12.134.212a.419.419,0,0,1,.729,0l3.928,8.282a.4.4,0,0,1-.342.575,1.308,1.308,0,1,0,1.287.821.4.4,0,0,1,.142-.474L24.363,4.8a.4.4,0,0,1,.234-.075.4.4,0,0,1,.38.535L21,16.711Zm-8.455-3.4a3.187,3.187,0,0,1,2.561,1.3l1.462-1.071a4.983,4.983,0,0,0-8.046,0l1.462,1.071A3.187,3.187,0,0,1,12.544,13.306Z" transform="translate(-0.002 17.023)"/>
    </g>
  </g>
</svg>
