<svg width="50" height="50" viewBox="0 0 50 50" fill="none" xmlns="http://www.w3.org/2000/svg">
<circle cx="25" cy="25" r="24.5" fill="white" stroke="#A4A4A4"/>
<path opacity="0.5" d="M23.7064 32.5285C23.7064 31.3245 23.7279 30.3212 23.7709 29.5185C23.8283 28.7015 24.0934 27.8415 24.5664 26.9385C25.0251 26.0785 25.6199 25.3547 26.3509 24.767C27.0819 24.165 27.8273 23.6132 28.5869 23.1115C29.3466 22.6099 29.9988 22.0652 30.5434 21.4775C31.0881 20.8469 31.4536 20.1947 31.6399 19.521C31.8263 18.833 31.9194 18.1235 31.9194 17.3925C31.9194 16.5039 31.8048 15.7155 31.5754 15.0275C31.3461 14.3395 31.0021 13.7519 30.5434 13.2645C29.8554 12.4619 29.0241 11.9172 28.0494 11.6305C27.0891 11.3439 26.1001 11.2005 25.0824 11.2005C23.9931 11.2005 22.9826 11.3654 22.0509 11.695C21.1336 12.0104 20.3811 12.4905 19.7934 13.1355C19.2631 13.6659 18.8761 14.3037 18.6324 15.049C18.4031 15.78 18.2884 16.5469 18.2884 17.3495H16.4824C16.4824 16.4035 16.6329 15.4432 16.9339 14.4685C17.2493 13.4795 17.7581 12.6195 18.4604 11.8885C19.3204 10.9999 20.3453 10.362 21.5349 9.97503C22.7389 9.58803 23.9501 9.39453 25.1684 9.39453C26.4584 9.39453 27.6839 9.58803 28.8449 9.97503C30.0203 10.362 31.0164 10.9999 31.8334 11.8885C32.5501 12.6339 33.0661 13.4724 33.3814 14.404C33.6968 15.3214 33.8544 16.3319 33.8544 17.4355C33.8544 18.4245 33.6896 19.3849 33.3599 20.3165C33.0446 21.2482 32.5501 22.0509 31.8764 22.7245C31.3604 23.2835 30.7226 23.821 29.9629 24.337C29.2176 24.8387 28.4938 25.369 27.7914 25.928C27.0891 26.487 26.5588 27.1105 26.2004 27.7985C25.8421 28.4865 25.6558 29.196 25.6414 29.927C25.6414 30.6437 25.6414 31.5109 25.6414 32.5285H23.7064ZM23.7064 40.9995V37.7745H25.6414V40.9995H23.7064Z" fill="black"/>
</svg>
